<svg id="Layer_1" enable-background="new 0 0 104 104" height="512" viewBox="0 0 104 104" width="512" xmlns="http://www.w3.org/2000/svg"><g id="_x39_9"><g><g><g><g><g><g><g><path d="m83.4 69.8c-.3.5-.9.7-1.5.5-1.1-.4-2.6.1-3.2 1.2-.5 1.1-.1 2.5.8 3.1.5.4.6 1.1.2 1.7l-2.4 3.7c-.4.5-1.1.7-1.6.5 0 0-.1 0-.1-.1-1-.7-2.5-.6-3.4.3-1 1-1 2.7-.2 3.7.4.4.3 1.1 0 1.4l-3.3 4.4c-.3.4-.9.7-1.4.4-1-.4-2.4-.1-3.1.8-.9 1.3-.3 2.9.8 3.7-.8.8-1.7 2.7-2.7 3.3-1.5.9-2.5-.5-3.5-1.3-1.1-.9-2.4-1.4-3.5-2.2-15.5-10.8-31.3-21.3-42.2-28.5-3-2-5.6-4.1-8.9-5.4-1.5-.6.4-2.7 1.1-3.6.1-.1.3-.1.5 0 .8.7 2.1.9 3.1.5 1.1-.5 1.9-1.8 1.8-3-.1-1.1-.9-2.1-1.9-2.4-.2-.1-.2-.3-.1-.5 1-1.3 2.2-3.1 3.2-5.1.1-.2.4-.2.5 0 .6 1 1.8 1.5 2.9 1.3 1.3-.3 2.4-1.7 2.3-3 0-1.1-.7-2.2-1.7-2.7-.2-.1-.2-.4 0-.5.7-.5 1.6-1.6 1.8-1.9.7-.8 1.2-1.6 1.7-2.4.1-.2.4-.2.5-.1.6.8 1.8 1.1 2.8.8 1.1-.4 1.9-1.5 1.9-2.7 0-1.1-.6-2.1-1.4-2.6-.2-.1-.2-.3-.1-.4 1.6-2 3.1-4.1 4.9-6.1.6-.7 9.3 6.8 9.9 7.3.9.6 1.7 1.2 2.6 1.8l4.5 3.2c2 1.4 4 2.8 6 4.2 4.1 2.9 22 15.4 26.1 18.3 1.9 1.5 4 2.8 6 4.3 2.1 1.3 1.4 2.4.3 4.1z" fill="#f9cf6a"/></g></g></g></g></g><g><g><path d="m75.7 80.5c-1-.7-2.6-.7-3.5.2-1 1-1 2.7-.2 3.7.3.3.3.8.1 1.2-1.8.9-3.7 1.7-5.6 2.4-1.7.7-3.6-.2-4.3-1.9-8.9-24.1-13-35-17.2-47.5 2 1.4 4 2.8 6 4.2 7.5 5.2 15 10.5 22.5 15.8 2.2 22.5 2.3 21.8 2.2 21.9z" fill="#f6bb35"/></g></g><g><g><g><path d="m60.2 64.6c-.6 8.6-11.6 12.5-17 5.8-1.5-1.9-2.3-4.4-2-7 .2-1.6.8-3.1 1.6-4.3 3.2-4.9 9.9-6 14.2-2.3 3.8 3.1 3.2 7.9 3.2 7.8z" fill="#fff"/></g></g><g><g><path d="m60.2 64.6c-.6 8.6-11.6 12.5-17 5.8-.4-.5-.8-1.1-1.1-1.7.2.1.4.2.6.3 4.4 1.7 9.7-.4 12.1-7.6.6-1.7.9-3.5 1.2-5.3.3.2.7.5 1 .7 2.6 2.2 3.1 5.3 3.1 5.2.2 1.4.1 2.7.1 2.6z" fill="#d7e3f7"/></g></g><g><g><path d="m52 65c.1.1.4 0 .6-.1 2.3-.2 3.2.1 3.4-.4.1-.2.1-.6.1-.8.2-.9.3-2 .3-2.9 0-.1-.1-.2-.1-.3-1-.7-2.1-1.2-3.3-1.6-.1 0-.2 0-.3.1-.8.8-1.6 1.5-2.4 2.1-.1.1-.2.2-.1.4.4 1 .9 2 1.4 2.9.1.1.3.5.4.6z" fill="#071d61"/></g></g><g><g><path d="m59.3 68c-.7 1.4-1.8 3-3.2 3.8-.4-.9-.7-.9-.6-1.1 1.7-2.1 1.8-3.3 2-3.2.6 0 1.2-.2 1.7-.5.1 0 .1 0 .1.1.1.1 0 .8 0 .9z" fill="#071d61"/></g></g><g><g><path d="m51.6 71.4c-.7-.8-1.4-1.8-1.9-2.8-1.3 0-2.6 0-3.9-.1-.2.8-.2 1.7-.3 2.5 1 .8 2.2 1.4 3.5 1.8 1-.2 1.9-.7 2.6-1.4z" fill="#071d61"/></g></g><g><g><path d="m45.5 58.9c.2.8.4 1.6.7 2.4.1.4-.8.7-2 3.2-.1.1-.2.2-.3.1-1.2-.5-1.6-.6-1.6-.9.1-.9.2-3.3.5-3.5.8-.7 1.6-1.2 2.5-1.5 0 0 .1.1.2.2z" fill="#071d61"/></g></g><g><g><path d="m53.3 55.2c-.6.1-1.2.4-1.7.8-1.3-.4-2.7-.4-4 0 .1-.3.1-.7.1-1 1.8-.7 3.8-.7 5.4-.3.1.3.2.4.2.5z" fill="#071d61"/></g></g><g><g><path d="m60.2 63.1c-.5-1.1-.7-2.2-1.9-3.2-.3-2.1-1.3-2.9-.9-2.6.2.1.4.4.5.6 1.5 1.5 2.1 3.2 2.3 5.2z" fill="#071d61"/></g></g><g><g><path d="m46.2 69.6c-1.3-1.3-2.2-3.1-2.5-5-.1-.3.4-.4.5-.1.3 1.8 1.1 3.5 2.4 4.7.1.1.1.3 0 .4s-.3.1-.4 0z" fill="#071d61"/></g></g><g><g><path d="m45.6 61.4c2-.5 3.9-.5 5.5 0 .3.1.2.6-.1.5-1.9-.6-3.9-.3-5.2 0-.4 0-.5-.4-.2-.5z" fill="#071d61"/></g></g><g><g><path d="m45 59.6c-.2 0-.3-.1-.2-.3.1-.1 0-2.2 3.5-3.8.3-.1.5.3.2.5-.7.3-3 1.6-3.2 3.4-.1.1-.2.2-.3.2z" fill="#071d61"/></g></g><g><g><path d="m52.8 59c-.3-1.1-.8-2.2-1.5-3.1-.1-.1-.1-.3.1-.4.1-.1.3-.1.3.1.7 1 1.3 2.1 1.6 3.3 0 .1 0 .3-.2.3s-.3-.1-.3-.2z" fill="#071d61"/></g></g><g><g><path d="m56 60.7c.7-.6 1.6-1 2.5-1.1.3-.1.4.4.1.5-.8.1-1.6.5-2.2 1-.4.2-.7-.2-.4-.4z" fill="#071d61"/></g></g><g><g><path d="m55.6 64.8c-.2-.3.2-.6.4-.3.9 1.1 1.4 2.3 1.8 3.5 0 .1 0 .3-.2.3-.2.1-.3 0-.3-.2-.2-.5-.4-1.6-1.7-3.3z" fill="#071d61"/></g></g><g><g><path d="m49 69.5c.9-1.9 2.1-3.6 3.5-5.1.2-.2.6.1.4.3-1.4 1.5-2.5 3.1-3.4 4.9-.2.4-.7.2-.5-.1z" fill="#071d61"/></g></g><g><g><path d="m51.2 71.5c-.3 0-.3-.5.1-.5 1.6.2 3.2.3 4.5-.5.3-.2.5.2.3.4-.7.4-1.5.7-2.4.7-.9.1-1.7 0-2.5-.1z" fill="#071d61"/></g></g><g><g><path d="m45.9 71.3c-1-.1-1.8-.3-2.7-.9-.1-.1-.3-.3-.5-.7.9.8 2.1 1.3 3.3 1.4.1 0 .1.2-.1.2z" fill="#071d61"/></g></g><g><g><path d="m49.7 73.8c-.3-.3-.6-.6-.8-.9-.1-.1.1-.3.2-.1.7 1.1 1.5 1.1.6 1z" fill="#071d61"/></g></g><g><g><path d="m42.8 60.5c-.1 0-.1 0-.1-.1-.1-.3-.1-.7-.1-1 .1-.1.2-.3.2-.4-.1 1.1.2 1.4 0 1.5z" fill="#071d61"/></g></g><g><g><path d="m59.9 66.1c-.2.4-.4.8-.7 1.2-.1.1-.3 0-.2-.1.5-.7.9-1.6 1.1-2.5 0 .8-.2 1.5-.2 1.4z" fill="#071d61"/></g></g><g><g><path d="m56.9 56.7c-1.1-.9-2.5-1.4-3.8-1.4-.1 0-.1-.2 0-.2.7 0 1.3.2 1.2.2 1.9.6 2.8 1.6 2.6 1.4z" fill="#071d61"/></g></g><g><g><path d="m42.5 63.8c-.5.5-1 1.1-1.3 1.8 0-.1 0-.3 0-.4.3-.6.7-1.1 1.2-1.6h.2c-.1.1-.1.2-.1.2z" fill="#071d61"/></g></g></g><g><g><g><g><g><path d="m97.9 73c-.5.3-1.2.1-1.5-.4-.7-1-2.2-1.4-3.3-.7-1 .6-1.4 2.1-1 3.2.2.6-.2 1.3-.8 1.5l-4 1.7c-.6.2-1.4 0-1.6-.6-.4-1.1-1.7-1.9-2.9-1.7-1.3.3-2.3 1.8-2.2 3.1 0 .5-.3 1-.8 1.2l-5.1 1.9c-.5.2-1.1.1-1.4-.4-.6-.9-1.9-1.5-2.9-1-1.4.6-1.8 2.3-1.3 3.6-1 .2-2.8 1.4-4 1.4-1.7 0-1.8-1.8-2.2-3-.4-1.3-1.2-2.5-1.7-3.8-4.6-12.3-8.9-23.3-13.8-35.5-1.2-3.1-2.5-6.2-3.7-9.3-.4-1.1-.9-2.1-1.3-3.2-1.4-3.4-2.3-6.6-4.3-9.6-.9-1.3 1.8-2.1 2.9-2.5.2-.1.3.1.4.2.3 1.1 1.2 2 2.3 2.1 1.2.2 2.5-.5 3.1-1.6.5-1 .4-2.3-.2-3.1-.1-.2 0-.4.2-.5.8-.3 1.6-.6 2.4-1 1.1-.5 2.1-1 3.1-1.6.2-.1.5 0 .4.3-.1 1.2.6 2.3 1.7 2.7 1.3.5 2.8-.1 3.6-1.3.6-1 .6-2.3.1-3.3-.1-.2 0-.4.2-.5.8-.1 2.2-.5 2.5-.6 1-.3 1.8-.7 2.7-1.1.2-.1.4 0 .4.2.1 1 .8 2 1.8 2.2 1.1.3 2.4-.2 3.1-1.2.6-.9.7-2.1.2-3-.1-.2 0-.4.2-.4 2.4-.8 4.8-1.7 7.3-2.4.9-.3 3.8 11 4.1 11.8.1.2.2.5.3.7 1.8 4.8 3.6 9.6 5.4 14.4 3.8 10.1 7.5 20.1 11.2 30.1.2.8.5 1.6.8 2.4.6 1.5 1.2 3.1 1.7 4.6.9 2.6-.3 3.2-2.1 4z" fill="#f9cf6a"/></g></g></g></g></g><g><g><path d="m80.9 17.7c-5.7 2.3-19.9 8.6-28.2 12.4-1.8.8-6.4 2.3-9 4-.4-1.1-.9-2.1-1.3-3.2-1.4-3.4-2.3-6.6-4.3-9.6-.9-1.3 1.8-2.1 2.9-2.5.2-.1.3.1.4.2.3 1.1 1.2 2 2.3 2.1 1.2.2 2.5-.5 3.1-1.6.5-1 .4-2.3-.2-3.1-.1-.2 0-.4.2-.5.8-.3 1.6-.6 2.4-1 1.1-.5 2.1-1 3.1-1.6.2-.1.5 0 .4.3-.1 1.2.6 2.3 1.7 2.7 1.3.5 2.8-.1 3.6-1.3.6-1 .6-2.3.1-3.3-.1-.2 0-.4.2-.5.8-.1 2.2-.5 2.5-.6 1-.3 1.8-.7 2.7-1.1.2-.1.4 0 .4.2.1 1 .8 2 1.8 2.2 1.1.3 2.4-.2 3.1-1.2.6-.9.7-2.1.2-3-.1-.2 0-.4.2-.4 2.4-.8 4.8-1.7 7.3-2.4.9-.3 3.8 11 4.1 11.8.1.5.2.7.3 1z" fill="#6e9dff"/></g></g><g><g><path d="m40.5 35.5c-.8 1.7-2.2 3.3-3 4.6-21.8 34.3-15.9 24.4-19.3 29.7-1.7-1.1-3.4-2.3-5.1-3.4-3-2-5.6-4.1-8.9-5.4-1.5-.6.4-2.7 1.1-3.6.1-.1.3-.1.5 0 .8.7 2.1.9 3.1.5 1.1-.5 1.9-1.8 1.8-3-.1-1.1-.9-2.1-1.9-2.4-.2-.1-.2-.3-.1-.5 1-1.3 2.2-3.1 3.2-5.1.1-.2.4-.2.5 0 .6 1 1.8 1.5 2.9 1.3 1.3-.3 2.4-1.7 2.3-3 0-1.1-.7-2.2-1.7-2.7-.2-.1-.2-.4 0-.5.7-.5 1.6-1.6 1.8-1.9.7-.8 1.2-1.6 1.7-2.4.1-.2.4-.2.5-.1.6.8 1.8 1.1 2.8.8 1.1-.4 1.9-1.5 1.9-2.7 0-1.1-.6-2.1-1.4-2.6-.2-.1-.2-.3-.1-.4 1.6-2 3.1-4.1 4.9-6.1.6-.7 9.3 6.8 9.9 7.3.9.4 1.8 1 2.6 1.6z" fill="#4883fc"/></g></g></g><g><g><g><path d="m81.6 50c0 .1-.1 1.8-1 3.8-.7 1.5-1.7 2.8-2.9 3.8-7.3 6.2-18.3.8-17.2-9 .2-1.8.9-3.5 1.8-4.8 3.6-5.5 11.1-6.6 15.8-2.5 2.9 2.4 3.4 5.9 3.4 5.8.2 1.6.1 3 .1 2.9z" fill="#fff"/></g></g><g><g><path d="m81.6 50c0 .1-.1 1.8-1 3.8-3.8 8.2-15.3 8.7-19.1.7l.6.3c4.9 1.9 10.8-.4 13.4-8.5.6-1.9 1-3.9 1.4-5.9.4.2.7.5 1.1.8 2.9 2.4 3.4 5.9 3.4 5.8.3 1.7.2 3.1.2 3z" fill="#d7e3f7"/></g></g><g><g><path d="m72.5 50.4c.1.1.5-.1.6-.1 2.6-.2 3.6.1 3.8-.5.1-.3.1-.7.1-.9.2-1 .3-2.2.4-3.3 0-.1-.1-.2-.2-.3-1.1-.7-2.3-1.4-3.6-1.8-.4-.2-.4.3-3 2.5-.1.1-.2.3-.1.4.4 1.1 1 2.2 1.5 3.2.2.3.3.8.5.8z" fill="#071d61"/></g></g><g><g><path d="m80.6 53.8c-1.1 2.4-3 3.9-2.9 3.8-.2.1-.4.3-.6.4-.4-1-.8-1-.7-1.2 1.9-2.4 2-3.6 2.2-3.6.7 0 1.3-.2 1.9-.6.1 0 .1 0 .1.1.1.4.1.7 0 1.1z" fill="#071d61"/></g></g><g><g><path d="m72 57.5c-.8-.9-1.5-2-2.1-3.1-1.4 0-2.9 0-4.3-.1-.2.9-.3 1.9-.3 2.8 1.2.9 2.4 1.6 3.9 2 1.1-.2 2-.8 2.8-1.6z" fill="#071d61"/></g></g><g><g><path d="m65.3 43.7c.6 2.7.9 2.7.7 3-2.3 2.6-2.1 3.6-2.6 3.4-1.4-.5-1.8-.6-1.8-1 .1-1.1.2-3.7.5-3.9.9-.7 1.8-1.3 2.8-1.7.2-.1.3 0 .4.2z" fill="#071d61"/></g></g><g><g><path d="m74 39.5c-.7.1-1.3.5-1.8.9-1.4-.4-3-.4-4.4.1.1-.4.1-.7.1-1.1 2-.7 4.2-.8 6-.3 0 .1 0 .3.1.4z" fill="#071d61"/></g></g><g><g><path d="m81.6 48.3c-.6-1.2-.8-2.5-2.1-3.6-.1-1.1-.5-2.1-1-3 .4.3.4.3.7.7.2.2.4.5.5.7.7 1 1.2 2.1 1.5 3.3.2.6.3 1.2.4 1.9z" fill="#071d61"/></g></g><g><g><path d="m66.1 55.5c-1.5-1.5-2.4-3.5-2.8-5.6 0-.1.1-.3.2-.3s.3.1.3.2c.3 2 1.3 3.9 2.6 5.3.3.3 0 .7-.3.4z" fill="#071d61"/></g></g><g><g><path d="m65.5 46.4c2.2-.6 4.3-.6 6.1 0 .3.1.2.6-.1.5-2.1-.7-4.3-.3-5.8 0-.4.1-.6-.4-.2-.5z" fill="#071d61"/></g></g><g><g><path d="m65 44.1h-.5.2-.2c.3-2.3 2.8-3.7 3.9-4.2.3-.1.5.3.2.5-.8.3-3.4 1.6-3.6 3.7z" fill="#071d61"/></g></g><g><g><path d="m73.4 43.7c-.3-1.2-.9-2.4-1.6-3.5-.2-.2.2-.5.4-.2.8 1.1 1.4 2.3 1.7 3.6 0 .1 0 .3-.2.3-.1 0-.3-.1-.3-.2z" fill="#071d61"/></g></g><g><g><path d="m77 45.6c.8-.6 1.7-1.1 2.7-1.2.3-.1.4.4.1.5-.9.1-1.8.5-2.5 1.1-.3.2-.6-.2-.3-.4z" fill="#071d61"/></g></g><g><g><path d="m76.6 50.1c-.2-.3.2-.6.4-.3.9 1.3 1.6 2.6 2 3.9 0 .1 0 .3-.2.3-.2.1-.3-.1-.4-.3-.2-.5-.5-1.7-1.8-3.6z" fill="#071d61"/></g></g><g><g><path d="m69.2 55.4c1-2.1 2.3-4 3.9-5.6.2-.2.6.1.4.3-1.5 1.6-2.8 3.5-3.8 5.5-.2.3-.7.1-.5-.2z" fill="#071d61"/></g></g><g><g><path d="m71.6 57.6c-.3 0-.3-.5.1-.5 1.7.2 3.6.4 5.1-.6.1-.1.3 0 .3.1.1.1 0 .3-.1.3-1.7 1.1-3.5.9-5.4.7z" fill="#071d61"/></g></g><g><g><path d="m65.7 57.4c-.1 0-.1 0-.2 0-1.7-.1-3-1.1-2.9-1-.2-.2-.4-.5-.5-.7 1 .9 2.3 1.5 3.6 1.5.2 0 .2.2 0 .2z" fill="#071d61"/></g></g><g><g><path d="m69.9 60.2c-.4-.3-.7-.6-.9-1-.1-.1.1-.3.2-.1.9 1.2 1.7 1.2.7 1.1z" fill="#071d61"/></g></g><g><g><path d="m62.3 45.4c-.1 0-.1 0-.2-.1-.1-.4-.1-.8-.1-1.1.1-.1.2-.3.3-.4-.1 1.1.2 1.5 0 1.6z" fill="#071d61"/></g></g><g><g><path d="m81.3 51.6c-.2.5-.5.9-.8 1.3 0 0-.1.1-.1.1-.1 0-.2-.1-.1-.2.6-.8 1-1.8 1.2-2.8 0 1-.2 1.7-.2 1.6z" fill="#071d61"/></g></g><g><g><path d="m78 41.2c-1.3-1-2.8-1.6-4.2-1.6-.2 0-.2-.3 0-.3.8 0 1.5.2 1.4.2 1 .4 2 1 2.8 1.7z" fill="#071d61"/></g></g><g><g><path d="m62 49.1c-.6.6-1.1 1.3-1.5 2 0-.1 0-.3 0-.4.4-.6.8-1.2 1.3-1.7.1-.2.3 0 .2.1z" fill="#071d61"/></g></g></g><g><g><path d="m72.4 34.9-1.8-.6-1.5 1.2v-1.9l-1.5-1 1.7-.7.6-1.8 1.1 1.5 1.9-.1-1.1 1.6z" fill="#f74f6c"/></g></g><g><g><path d="m41.3 53.8-1.8-.5-1.5 1.2v-1.9l-1.5-1 1.8-.7.5-1.8 1.1 1.5 1.9-.1-1.1 1.6z" fill="#e21335"/></g></g><g><g><path d="m85.6 61.2-1.7-.5-1.4 1.2v-1.9l-1.5-.9 1.7-.6.6-1.8 1 1.4 1.8-.1-1.1 1.5z" fill="#f74f6c"/></g></g><g><g><path d="m86.7 43.6-1.7-.5-1.4 1.1v-1.8l-1.5-1 1.7-.6.6-1.7 1 1.4 1.8-.1-1.1 1.5z" fill="#f74f6c"/></g></g><g><g><g><path d="m57.2 20.5c-.3.1-.5.3-.7.3-.4 0-.6-.3-.6-.6.1-.7.2-1 .3-1.9.1-.7 1.1-1 1.5-.1 1.4 3.5 2.4 4.9 2.3 5.5s-1.1.7-1.3.1c-.2-.5-1.5-3.2-1.5-3.3z" fill="#fff"/></g></g><g><g><path d="m62.3 21.1c.4-.2.9-.5 1.4-.6 1.1-.3 1.3.8.7 1.1-.3.1-2.4 1-2.8 1.2-.7.3-1.2-.5-1-1.1.3-1.1 1.3-3.2.8-4.2-.4-.8-1.4-.2-1.4.8-.1.9-1.4 1.1-1.3-.1.1-3.2 4.3-3.4 4.3-.7 0 1.3-.3 2.4-.7 3.6z" fill="#fff"/></g></g></g><g><g><g><path d="m21.3 50.7c-.2.2-.2.2-.2.4-.3.4-.9.4-1.1-.1-.3-.6-.3-.9-.7-1.8-.2-.6.4-1.4 1.3-.8 1.4 1.1 2.8 2.2 4.3 3.2.8.5.1 1.6-.6 1.3-.1-.1-3-2.2-3-2.2z" fill="#fff"/></g></g><g><g><path d="m24.5 45.8c.4-.2.9-.3 1.4-.2 1.1.1 1.9.9 2 2.2.1 2.9-3.6 3.8-3.5 2.3.2-1.1 1.8-.3 2.1-1.6.3-1.1-.8-2-1.7-1.2-.5.5-1.2.6-1.3-.1-.1-.5-.1-1.2-.2-1.7-.1.3-.5.9-.7 1.2-.6 1.1-1.8.2-1.1-.6.6-.8 1.2-2.4 2.3-2 .4.2.6 1.2.7 1.7z" fill="#fff"/></g></g></g><g><g><path d="m65.9 80-1.4.6-5-12.6 1.4-.6z" fill="#fff"/></g></g><g><g><path d="m68.5 78.9-1.4.6-4.9-12.6 1.4-.6z" fill="#fff"/></g></g><g><g><path d="m58.3 90.7-.9 1.2-11-7.4.8-1.3z" fill="#fff"/></g></g><g><g><path d="m59.9 88.3-.8 1.2-11.1-7.4.8-1.3z" fill="#fff"/></g></g><g><g><path d="m60.2 42.8-3.1-2.5c-.2-.2-.2-.5-.1-.7.2-.2.5-.2.7-.1l3.1 2.5c.2.2.2.5.1.7-.1.3-.5.3-.7.1z" fill="#fff"/></g></g><g><g><path d="m66.2 37.7-.8-1.8c-.1-.3 0-.5.2-.7.3-.1.5 0 .7.2l.8 1.8c.1.3 0 .5-.2.7-.3.1-.6 0-.7-.2z" fill="#fff"/></g></g><g><g><path d="m76 38.4c-.2-.1-.3-.5-.2-.7l1.6-2.5c.1-.2.5-.3.7-.2s.3.5.2.7l-1.6 2.5c-.1.3-.4.3-.7.2z" fill="#fff"/></g></g><g><g><path d="m83.9 47.9 2-.4c.3-.1.5.1.6.4s-.1.5-.4.6l-2 .4c-.3 0-.5-.1-.6-.3-.1-.3 0-.7.4-.7z" fill="#fff"/></g></g><g><g><path d="m78.4 63.7-1.1-2c-.1-.2 0-.5.2-.7.2-.1.5 0 .7.2l1.1 2c.1.2 0 .5-.2.7-.2.1-.5.1-.7-.2z" fill="#fff"/></g></g><g><g><path d="m67.4 65.1c-.3-.1-.4-.4-.3-.7l.6-1.6c.1-.3.4-.4.7-.3s.4.4.3.7l-.7 1.6c-.1.3-.4.4-.6.3z" fill="#fff"/></g></g></g><g><g><g><path d="m29.3 21.4c-.4.1-7.3-5.8-7.3-5.8l4.8-3.7z" fill="#f74f6c"/></g></g><g><g><path d="m34.1 17.9c-.3 0-3.7-5.7-3.7-5.7l4.1-1.4z" fill="#f9cf6a"/></g></g><g><g><path d="m25.3 24.5c-.2.3-6.8-.3-6.8-.3l1.3-4.2z" fill="#9ced5a"/></g></g></g><g><g><g><path d="m86.6 12.3c-.2-.2 2.6-5.8 2.6-5.8l3.3 2.5z" fill="#f74f6c"/></g></g><g><g><path d="m89.7 14.9c-.1-.2 3.2-3.4 3.2-3.4l1.6 2.5z" fill="#f57ac8"/></g></g><g><g><path d="m83.8 10.2c-.2-.1-.9-4.6-.9-4.6l3 .1z" fill="#60b329"/></g></g></g></g></svg>