<svg xmlns="http://www.w3.org/2000/svg" version="1.1" xmlns:xlink="http://www.w3.org/1999/xlink" width="512" height="512" x="0" y="0" viewBox="0 0 512 512" style="enable-background:new 0 0 512 512" xml:space="preserve"><g><path d="M84.689 473.962c-5.11 0-9.942-3.03-12.012-8.022l-.737-1.775a13 13 0 0 1 2.281-13.607c.129-.146.236-.332.316-.55.353-.976-.171-2.097-1.183-2.463a1.802 1.802 0 0 0-1.297-.013 12.986 12.986 0 0 1-9.994-.385 13.004 13.004 0 0 1-6.764-7.366l-4.009-11.053a13.006 13.006 0 0 1 9.114-17.059c.29-.072.998-.328 1.305-1.179.375-1.033-.147-2.167-1.159-2.535a1.996 1.996 0 0 0-.675-.121 2.02 2.02 0 0 0-.866.199 13.004 13.004 0 0 1-17.861-7.286l-4.985-13.759a13 13 0 0 1 8.072-16.749 2.003 2.003 0 0 0 1.26-1.225c.357-.988-.164-2.122-1.178-2.491a1.916 1.916 0 0 0-.673-.125c-.244 0-.491.049-.734.144a12.993 12.993 0 0 1-10.092-.267 13.007 13.007 0 0 1-6.86-7.409l-5.049-13.912a13.002 13.002 0 0 1 8.445-16.877c.66-.201 1.372-.868 1.372-1.86a1.965 1.965 0 0 0-1.972-1.951c-.335 0-.569.07-.707.129a13.015 13.015 0 0 1-10.286-.038 13.004 13.004 0 0 1-7.041-7.498l-5.049-13.954a13.007 13.007 0 0 1 9.014-17.025 1.925 1.925 0 0 0 1.435-1.877c0-1.086-.875-1.97-1.95-1.97l.152-.015a13.005 13.005 0 0 1-12.957-7.915l-.347-.823a13 13 0 0 1 7.212-17.147l65.133-25.682c-1.61-12.2 2.556-24.736 11.343-32.807 5.732-5.265 13.448-8.431 21.385-8.814 4.614-3.519 9.903-6.101 15.453-7.531a164.214 164.214 0 0 1 7.026-15.126 44.383 44.383 0 0 1-.485-6.505c0-24.175 18.971-44.002 42.805-45.384a186.998 186.998 0 0 1 12.344-9.514c18.103-12.758 38.247-22.611 59.92-29.315 23.649-23.82 56.148-37.414 89.731-37.414 51.051 0 96.327 30.021 116.262 76.775 40.981 35.503 58.962 84.152 48.147 130.738-.1.432-.203.861-.308 1.291.434-.042.884-.064 1.301-.064 6.864 0 12.645 5.142 13.448 11.963.913 8.088-.602 16.032-4.204 22.675.309 2.135.465 4.281.465 6.423 0 21.134-14.366 39.088-34.315 44.08-3.338 4.16-7.419 7.51-12.03 9.84-1.827.937-3.967 1.456-6.108 1.456a13.472 13.472 0 0 1-11.031-5.678l-76.784 29.299L89.322 473.105a12.966 12.966 0 0 1-4.633.857z" style="" fill="#ffffff" data-original="#ffffff"></path><path d="M189.544 115.644c-33.328 23.487-58.143 57.704-65.757 101.162-7.144 40.777 5.109 85.535 35.298 113.756 24.596 22.992 62.226 33.567 93.158 20.363 12.42-5.302 23.171-13.99 35.566-19.351 35.763-15.466 77.55-.814 115.686-8.73 38.919-8.078 70.937-41.142 79.955-79.983 12.814-55.197-19.859-105.823-65.99-134.063-69.33-42.442-161.462-39.986-227.916 6.846z" style="" fill="#5351f2" data-original="#5351f2"></path><circle cx="172.365" cy="159.915" r="32.458" style="" fill="#ffe0e0" data-original="#ffe0e0"></circle><circle cx="461.357" cy="288.089" r="32.459" style="" fill="#ffe0e0" data-original="#ffe0e0"></circle><path d="M331.705 51.29c-62.633 0-113.417 50.784-113.417 113.417s50.784 113.417 113.417 113.417c62.656 0 113.417-50.784 113.417-113.417S394.361 51.29 331.705 51.29zm59.995 47.6c15.624 0 28.269 12.668 28.269 28.269s-12.645 28.269-28.269 28.269c-15.601 0-28.246-12.668-28.246-28.269S376.099 98.89 391.7 98.89zm-123.856 4.275c15.601 0 28.246 12.645 28.246 28.246 0 15.601-12.645 28.269-28.246 28.269-15.624 0-28.269-12.668-28.269-28.269 0-15.601 12.645-28.246 28.269-28.246zm34.25-8.323c0-15.624 12.645-28.269 28.269-28.269 15.601 0 28.246 12.645 28.246 28.269 0 15.601-12.645 28.246-28.246 28.246-15.624 0-28.269-12.645-28.269-28.246zm96.202 125.22c-15.601 0-28.269-12.645-28.269-28.246 0-15.624 12.668-28.269 28.269-28.269 15.601 0 28.246 12.645 28.246 28.269 0 15.601-12.645 28.246-28.246 28.246z" style="" fill="#1c0d40" data-original="#1c0d40"></path><circle cx="274.03" cy="201.483" r="28.259" style="" fill="#ffe0e0" data-original="#ffe0e0"></circle><circle cx="341" cy="225.097" r="28.259" style="" transform="rotate(-22.099 340.968 225.087)" fill="#ffe0e0" data-original="#ffe0e0"></circle><circle cx="331.709" cy="164.708" r="107.616" style="stroke-width:1.1371;stroke-miterlimit:10;" fill="none" stroke="#ffe0e0" stroke-width="1.1371" stroke-miterlimit="10" data-original="#ffe0e0"></circle><path d="m404.871 302.481-42.956 52.458L83.502 461.208l-.737-1.777a14.65 14.65 0 0 0 2.796-4.702c2.817-7.758-1.192-16.339-8.95-19.156a14.817 14.817 0 0 0-10.271.021l-4.009-11.051a14.834 14.834 0 0 0 10.423-9.383c2.817-7.779-1.192-16.361-8.95-19.178a14.952 14.952 0 0 0-11.615.585l-4.984-13.76a14.996 14.996 0 0 0 9.318-9.08c2.817-7.779-1.192-16.361-8.95-19.178a14.916 14.916 0 0 0-10.575.13l-5.049-13.912c6.132-1.864 10.596-7.563 10.596-14.302 0-8.256-6.696-14.952-14.974-14.952-2.059 0-4.03.412-5.807 1.17l-5.049-13.955c6.457-1.647 11.225-7.498 11.225-14.475 0-8.278-6.696-14.974-14.952-14.974-.282 0-.542 0-.823.022l-.347-.823 272.865-107.59 73.713 4.383 46.475 137.21z" style="" fill="#ff5452" data-original="#ff5452"></path><path d="m167.647 371.84 74.374-28.159 2.383 5.787-74.53 28.416z" style="" fill="#1c0d40" data-original="#1c0d40"></path><path d="m447.662 322.218-85.747 32.722-77.231-194.053 88.456-34.888z" style="" fill="#ffffff" data-original="#ffffff"></path><path d="M73.768 316.021c-3.331-8.979 1.049-18.129 10.292-21.558 4.468-1.657 9.05-1.663 12.871.309l-1.294 2.823c-3.44-1.615-6.913-1.572-10.417-.273-7.403 2.745-10.95 10.24-8.254 17.511 2.698 7.273 10.274 10.64 17.678 7.896 3.504-1.299 6.164-3.534 7.704-7.04l2.821 1.293c-1.61 3.987-5.072 7.013-9.584 8.687-9.201 3.411-18.487-.667-21.817-9.648zM105.579 286.782l3.242-1.202 11.372 30.663-3.24 1.202-11.374-30.663zM147.721 271.151l11.372 30.663-2.671.99-28.942-17.569 9.228 24.88-3.24 1.202-11.375-30.664 2.673-.99 28.985 17.554-9.229-24.882 3.199-1.184zM193.011 286.045l1.041 2.804-21.685 8.042-11.372-30.664 21.026-7.798 1.039 2.804-17.784 6.596 4.045 10.907 15.859-5.881 1.023 2.762-15.859 5.881 4.224 11.387 18.443-6.84zM225.433 242.329l11.372 30.664-3.109 1.153-9.1-24.531-4.393 25.1-1.533.569-19.65-16.034 9.049 24.4-3.109 1.153-11.374-30.663 2.673-.99 21.749 17.797 4.752-27.627 2.673-.991zM266.273 252.745l-17.084 6.336-.641 9.557-3.373 1.251 2.645-35.863 3.198-1.185 25.392 25.464-3.418 1.268-6.719-6.828zm-2.156-2.188-13.469-13.743-1.25 19.2 14.719-5.457zM111.003 347.759l-10.776 3.995-1.039-2.804 24.793-9.195 1.039 2.804-10.776 3.995 10.333 27.862-3.242 1.204-10.332-27.861zM132.435 336.62l3.242-1.202 11.372 30.666-3.241 1.202-11.373-30.666zM151.921 346.835c-3.331-8.981 1.05-18.129 10.293-21.558 4.467-1.657 9.051-1.661 12.871.309l-1.295 2.821c-3.439-1.613-6.911-1.57-10.416-.271-7.403 2.747-10.951 10.242-8.254 17.514 2.697 7.271 10.273 10.638 17.678 7.891 3.504-1.299 6.164-3.53 7.703-7.041l2.821 1.293c-1.609 3.989-5.071 7.015-9.583 8.689-9.201 3.412-18.487-.668-21.818-9.647zM199.267 330.32l-3.909 8.676 2.989 8.061-3.241 1.202-11.372-30.666 3.24-1.202 6.873 18.529 11.133-25.206 3.722-1.382-8.123 18.809 20.416 11.516-3.856 1.431-17.872-9.768zM250.184 324.642l1.039 2.804-21.684 8.041-11.373-30.666 21.026-7.798 1.041 2.804-17.786 6.596 4.046 10.909 15.858-5.881 1.023 2.759-15.857 5.881 4.224 11.389 18.443-6.838zM257.756 293.329l-10.776 3.997-1.039-2.804 24.793-9.197 1.039 2.804-10.776 3.997 10.333 27.862-3.242 1.202-10.332-27.861zM137.971 408.915l4.463-1.655c3.507-1.301 6.706.076 7.902 3.301 1.198 3.225-.33 6.355-3.838 7.656l-4.462 1.655-4.065-10.957zm8.092 8.323c2.912-1.079 4.105-3.623 3.13-6.253-.975-2.63-3.538-3.78-6.45-2.7l-3.241 1.202 3.321 8.956 3.24-1.205zM161.774 409.222l-6.107 2.264-.229 3.414-1.204.449.945-12.816 1.143-.423 9.074 9.098-1.221.453-2.401-2.439zm-.771-.783-4.813-4.912-.448 6.863 5.261-1.951zM166.275 399.557l-3.851 1.428-.372-1.003 8.861-3.286.371 1.003-3.85 1.428 3.693 9.955-1.159.43-3.693-9.955zM185.378 402.657l.371 1.001-7.75 2.874-4.064-10.958 7.514-2.785.371 1.003-6.355 2.357 1.445 3.894 5.667-2.101.366.986-5.668 2.101 1.51 4.072 6.593-2.444zM254.634 363.047l4.064 10.958-1.143.423-1.875-5.058-6.859 2.544 1.877 5.058-1.16.43-4.064-10.958 1.159-.43 1.811 4.882 6.857-2.544-1.811-4.882 1.144-.423zM260.44 367.125c-1.184-3.193.375-6.48 3.694-7.709 3.288-1.221 6.623.235 7.813 3.443 1.19 3.21-.392 6.484-3.679 7.703-3.319 1.229-6.643-.244-7.828-3.437zm10.348-3.837c-.969-2.614-3.642-3.813-6.271-2.838-2.646.98-3.903 3.638-2.934 6.251.969 2.616 3.657 3.809 6.302 2.829 2.63-.975 3.873-3.626 2.903-6.242zM275.922 362.293l-2.328-6.279 1.159-.43 2.311 6.23c.964 2.599 2.627 3.337 4.756 2.546 2.145-.796 2.925-2.438 1.96-5.036l-2.311-6.23 1.128-.419 2.329 6.279c1.167 3.147.079 5.398-2.723 6.44-2.802 1.036-5.113.046-6.281-3.101zM298.811 359.128l-3.81-2.592a9.182 9.182 0 0 1-.86.37l-2.944 1.092 1.29 3.475-1.159.43-4.065-10.958 4.102-1.521c2.787-1.033 4.999-.252 5.87 2.097.639 1.723.179 3.265-1.227 4.372l4.071 2.764-1.268.471zm-2.734-7.181c-.65-1.752-2.18-2.324-4.372-1.509l-2.911 1.079 2.037 5.494 2.912-1.079c2.192-.815 2.973-2.262 2.334-3.985z" style="" fill="#1c0d40" data-original="#1c0d40"></path><path d="M381.898 248.21h4.604v71.1h-4.604z" style="" transform="scale(-1) rotate(68.999 412.868 -559.02)" fill="#1c0d40" data-original="#1c0d40"></path><path d="M377.59 236.988h4.604v71.1h-4.604z" style="" transform="scale(-1) rotate(68.999 396.543 -552.744)" fill="#1c0d40" data-original="#1c0d40"></path><path d="M373.373 226.005h4.604v71.1h-4.604z" style="" transform="scale(-1) rotate(68.999 380.559 -546.62)" fill="#1c0d40" data-original="#1c0d40"></path><path d="M365.948 206.665h4.604v71.1h-4.604z" style="" transform="scale(-1) rotate(68.999 352.42 -535.813)" fill="#1c0d40" data-original="#1c0d40"></path><path d="M363.565 200.457h4.604v71.1h-4.604z" style="" transform="scale(-1) rotate(68.999 343.388 -532.345)" fill="#1c0d40" data-original="#1c0d40"></path><path d="M380.977 242.48h2.046v71.1h-2.046z" style="" transform="scale(-1) rotate(68.999 404.532 -555.816)" fill="#1c0d40" data-original="#1c0d40"></path><path d="M376.76 231.497h2.046v71.1h-2.046z" style="" transform="scale(-1) rotate(68.999 388.551 -549.68)" fill="#1c0d40" data-original="#1c0d40"></path><path d="M345.415 153.182h4.604v71.1h-4.604z" style="" transform="scale(-1) rotate(68.999 274.602 -505.936)" fill="#1c0d40" data-original="#1c0d40"></path><path d="M341.107 141.96h4.604v71.1h-4.604z" style="" transform="scale(-1) rotate(68.999 258.274 -499.667)" fill="#1c0d40" data-original="#1c0d40"></path><path d="M336.89 130.977h4.604v71.1h-4.604z" style="" transform="scale(-1) rotate(68.999 242.296 -493.526)" fill="#1c0d40" data-original="#1c0d40"></path><path d="M344.494 147.452h2.046v71.1h-2.046z" style="" transform="scale(-1) rotate(68.999 266.266 -502.732)" fill="#1c0d40" data-original="#1c0d40"></path><path d="M340.277 136.469h2.046v71.1h-2.046z" style="" transform="scale(-1) rotate(68.999 250.285 -496.596)" fill="#1c0d40" data-original="#1c0d40"></path><path d="M370.618 215.5h2.046v71.1h-2.046z" style="" transform="scale(-1) rotate(68.999 365.277 -540.74)" fill="#1c0d40" data-original="#1c0d40"></path><path d="M369.152 211.679h2.046v71.1h-2.046z" style="" transform="scale(-1) rotate(68.999 359.717 -538.61)" fill="#1c0d40" data-original="#1c0d40"></path><path d="M362.919 195.443h2.046v71.1h-2.046z" style="" transform="scale(-1) rotate(68.999 336.088 -529.553)" fill="#1c0d40" data-original="#1c0d40"></path><path d="M390.514 270.654h4.604v71.1h-4.604z" style="" transform="scale(-1) rotate(68.999 445.524 -571.558)" fill="#1c0d40" data-original="#1c0d40"></path><path d="M389.603 265.282h2.302v71.1h-2.302z" style="" transform="scale(-1) rotate(68.999 437.705 -568.563)" fill="#1c0d40" data-original="#1c0d40"></path><path d="M388.045 261.223h2.302v71.1h-2.302z" style="" transform="scale(-1) rotate(68.999 431.8 -566.296)" fill="#1c0d40" data-original="#1c0d40"></path><path d="M352.84 172.522h4.604v71.1h-4.604z" style="" transform="scale(-1) rotate(68.999 302.74 -516.742)" fill="#1c0d40" data-original="#1c0d40"></path><path d="M351.928 167.15h2.302v71.1h-2.302z" style="" transform="scale(-1) rotate(68.999 294.925 -513.738)" fill="#1c0d40" data-original="#1c0d40"></path><path d="M350.37 163.091h2.302v71.1h-2.302z" style="" transform="scale(-1) rotate(68.999 289.017 -511.476)" fill="#1c0d40" data-original="#1c0d40"></path><path d="M359.715 190.429h4.604v71.1h-4.604z" style="" transform="scale(-1) rotate(68.999 328.796 -526.745)" fill="#1c0d40" data-original="#1c0d40"></path><path d="M358.803 185.057h2.302v71.1h-2.302z" style="" transform="scale(-1) rotate(68.999 320.98 -523.742)" fill="#1c0d40" data-original="#1c0d40"></path><path d="M357.245 180.998h2.302v71.1h-2.302z" style="" transform="scale(-1) rotate(68.999 315.074 -521.474)" fill="#1c0d40" data-original="#1c0d40"></path><path d="M454.365 329.921c10.381-5.25 15.962-18.465 12.487-29.567-1.02-3.261-2.841-6.431-5.76-8.208-2.919-1.776-7.074-1.775-9.48.651-2.023 2.04-2.387 5.355-1.364 8.041 1.022 2.685 3.225 4.784 5.693 6.256 8.644 5.158 20.916 2.547 27.094-5.4 6.178-7.947 5.866-20.104-.328-28.038-2.043-2.616-4.837-4.891-8.134-5.28-3.296-.389-7 1.703-7.493 4.986-.224 1.49.211 3.014.9 4.354 3.647 7.099 14.193 8.576 20.769 4.054 6.576-4.522 9.252-13.27 8.356-21.2M86.679 233.597c-2.925-8.838-.847-19.43 6.008-25.729 6.855-6.299 18.395-7.227 25.557-1.279 7.162 5.948 7.975 18.408.996 24.571-2.406 2.124-5.729 3.46-8.853 2.729-2.581-.604-4.697-2.537-6.075-4.802-3.313-5.443-2.683-12.574.003-18.352 3.978-8.558 12.322-14.942 21.622-16.545 9.3-1.602 19.3 1.622 25.912 8.355" style="stroke-width:1.0835;stroke-linecap:round;stroke-linejoin:round;stroke-miterlimit:10;" fill="none" stroke="#1c0d40" stroke-width="1.0835" stroke-linecap="round" stroke-linejoin="round" stroke-miterlimit="10" data-original="#1c0d40"></path></g></svg>