<svg height="512" viewBox="0 0 512 512" width="512" xmlns="http://www.w3.org/2000/svg"><g id="Ticket"><path d="m56.88 258c-13.69 0-24.79-10.52-24.79-23.5v-54.5c14.27 1.37 13.53 1.33 14.88 1.33 11.33 0 20.61-9.18 19.48-20.41-.92-9.1-9.06-16.69-19.48-16.69-1.48 0-1.29 0-14.88 1.33v-56.68c0-11.76 10.06-21.3 22.47-21.3h362.16c14.17 0 25.65 10.89 25.65 24.32v142.2c0 13.21-11.3 23.92-25.23 23.92z" fill="#40c2d6"/><path d="m43.78 88.88v44.44a35.63 35.63 0 0 1 21.36 4.9 22.9 22.9 0 0 1 8.53 8.42c13.6 23.65-5.41 48-29.89 45.64v42.24c0 6.86 5.86 12.42 13.1 12.42h360.26c7.48 0 13.54-5.75 13.54-12.84v-142.21c0-7.3-6.25-13.23-14-13.23h-362.12c-5.95 0-10.78 4.58-10.78 10.22z" fill="#86ebf9"/><rect fill="#fff" height="57.85" rx="3.33" transform="matrix(.745 .667 -.667 .745 169.26 -23.26)" width="7.04" x="111.52" y="180.74"/><rect fill="#fff" height="57.85" rx="3.33" transform="matrix(-.745 .667 -.667 -.745 468.02 240.35)" width="7.04" x="184.53" y="180.74"/><rect fill="#fff" height="6.79" rx="3.22" width="82.8" x="110.82" y="210.97"/><path d="m128.26 102.94h54.26a26 26 0 0 1 26 26v67.31a6.67 6.67 0 0 1 -6.67 6.67h-94.25a7.5 7.5 0 0 1 -7.5-7.5v-64.31a28.17 28.17 0 0 1 28.16-28.17z" fill="#fff"/><path d="m128 112h52.45a19.25 19.25 0 0 1 19.25 19.25v23.26a0 0 0 0 1 0 0h-90.8a0 0 0 0 1 0 0v-23.38a19.13 19.13 0 0 1 19.1-19.13z" fill="#86ebf9"/><path d="m151.89 105.23h4.84v57.38h-4.84z" fill="#fff"/><circle cx="125.78" cy="180.74" fill="#86ebf9" r="10.74"/><circle cx="180.17" cy="180.74" fill="#86ebf9" r="10.74"/><path d="m277.69 235.66a2 2 0 0 1 -2-2v-31a2 2 0 0 1 4 0v31a2 2 0 0 1 -2 2zm0-62a2 2 0 0 1 -2-2v-31a2 2 0 0 1 4 0v31a2 2 0 0 1 -2 2zm0-62a2 2 0 0 1 -2-2v-31a2 2 0 0 1 4 0v31a2 2 0 0 1 -2 2z" fill="#fff"/><rect fill="#fff" height="7.83" rx="3.71" width="108.43" x="304.44" y="116.85"/><rect fill="#fff" height="7.83" rx="3.71" width="108.43" x="304.44" y="147.88"/><rect fill="#fff" height="7.83" rx="3.71" width="108.43" x="304.44" y="178.9"/><rect fill="#fff" height="7.83" rx="3.71" width="108.43" x="304.44" y="209.93"/><rect fill="#40c2d6" height="20.54" rx="4.56" width="46.47" x="217.14" y="217.76"/><path d="m430.28 160.72-102.68 22.28a4.59 4.59 0 0 0 -3.6 4.3 24.33 24.33 0 0 1 -19.3 22.7 24.64 24.64 0 0 1 -26.78-12.58 4.65 4.65 0 0 0 -5.16-2.39l-219.08 50.84a4.52 4.52 0 0 0 -2.11 7.71 4.6 4.6 0 0 0 3.26 1.25l111.82-2.27c158.69-8.21 148.38-7.56 149.4-7.93l120.64-44.11a4.53 4.53 0 0 0 3-4.8l-3.82-31.11a4.6 4.6 0 0 0 -5.59-3.89z" fill="#40c2d6"/><path d="m336.89 195.65a10.4 10.4 0 0 0 -8.32 9.16 25.09 25.09 0 0 1 -47.08 8.87 10.4 10.4 0 0 0 -11.08-5.5l-216.64 40.82a10.61 10.61 0 0 0 -8.46 12.4l33.42 177.26a10.61 10.61 0 0 0 12.4 8.46l216.64-40.85a10.39 10.39 0 0 0 8.31-9.16 25.09 25.09 0 0 1 47.08-8.88 10.42 10.42 0 0 0 11.09 5.5l99.19-18.73a10.61 10.61 0 0 0 8.46-12.4l-33.42-177.19a10.61 10.61 0 0 0 -12.4-8.47z" fill="#efbd42"/><path d="m334.64 371.57a2 2 0 0 1 -2-1.63l-2.85-15.14a2 2 0 1 1 3.93-.74l2.86 15.14a2 2 0 0 1 -1.94 2.37zm-8.64-45.57a2 2 0 0 1 -2-1.63l-5.74-30.46a2 2 0 0 1 3.93-.74l5.81 30.42a2 2 0 0 1 -2 2.41zm-11.45-61a2 2 0 0 1 -2-1.63l-5.71-30.37a2 2 0 1 1 3.93-.74l5.75 30.46a2 2 0 0 1 -1.97 2.28z" fill="#fff"/><path d="m133.2 343.77c-3.27.51-6.47-2.09-7.16-5.79s1.33-7.29 4.56-8l105-23.41a8.57 8.57 0 0 1 10.28 6.58l.81 4.34a8.55 8.55 0 0 1 -7.17 9.86z" fill="#fff"/><path d="m214.08 321.37c-2.63-14 42.56-22.56 45.21-8.52s-42.56 22.55-45.21 8.52z" fill="#fff"/><path d="m214.83 319.05-22.41 4.22a4.71 4.71 0 0 1 -5.42-3.37l-17.81-64.19a4.73 4.73 0 0 1 3.67-5.9l9.1-1.71a4.72 4.72 0 0 1 5.09 2.51l31.12 61.67a4.72 4.72 0 0 1 -3.34 6.77z" fill="#fff"/><path d="m215.63 323.26-22.41 4.23a4.72 4.72 0 0 0 -3.82 5.12l6.78 66.26a4.73 4.73 0 0 0 5.58 4.16l9.09-1.72a4.7 4.7 0 0 0 3.82-4.19l6.53-68.77a4.72 4.72 0 0 0 -5.57-5.09z" fill="#fff"/><path d="m139 334.43-11.2 2.11a2.36 2.36 0 0 1 -2.72-1.68l-8.9-32.09a2.35 2.35 0 0 1 1.83-2.95l4.55-.86a2.35 2.35 0 0 1 2.55 1.25l15.56 30.84a2.36 2.36 0 0 1 -1.67 3.38z" fill="#fff"/><path d="m139.44 336.54-11.21 2.11a2.37 2.37 0 0 0 -1.91 2.56l3.4 33.13a2.35 2.35 0 0 0 2.78 2.08l4.55-.86a2.35 2.35 0 0 0 1.91-2.09l3.26-34.39a2.36 2.36 0 0 0 -2.78-2.54z" fill="#fff"/><ellipse cx="139.53" cy="335.43" fill="#fff" rx="25.29" ry="7.28" transform="matrix(.983 -.185 .185 .983 -59.74 31.67)"/><rect fill="#d7981a" height="163.12" rx="5.23" transform="matrix(.983 -.185 .185 .983 -46.54 80.1)" width="79.21" x="365.64" y="207.43"/><g fill="#fff"><path d="m362.82 222.3h61.96v6.28h-61.96z" transform="matrix(.983 -.185 .185 .983 -34.96 76.88)"/><path d="m365.22 235.05h61.96v6.28h-61.96z" transform="matrix(.983 -.185 .185 .983 -37.28 77.55)"/><path d="m367.63 247.8h61.96v6.28h-61.96z" transform="matrix(.983 -.185 .185 .983 -39.6 78.22)"/><path d="m370.03 260.55h61.96v6.28h-61.96z" transform="matrix(.983 -.185 .185 .983 -41.92 78.88)"/><path d="m372.44 273.3h61.96v6.28h-61.96z" transform="matrix(.983 -.185 .185 .983 -44.24 79.55)"/><path d="m374.84 286.05h61.96v6.28h-61.96z" transform="matrix(.983 -.185 .185 .983 -46.56 80.21)"/><path d="m377.24 298.8h61.96v6.28h-61.96z" transform="matrix(.983 -.185 .185 .983 -48.88 80.88)"/><path d="m379.82 312.46h61.96v6.28h-61.96z" transform="matrix(.983 -.185 .185 .983 -51.37 81.59)"/><path d="m382.22 325.21h61.96v6.28h-61.96z" transform="matrix(.983 -.185 .185 .983 -53.69 82.26)"/><path d="m384.63 337.96h61.96v6.28h-61.96z" transform="matrix(.983 -.185 .185 .983 -56.01 82.93)"/><path d="m387.03 350.71h61.96v6.28h-61.96z" transform="matrix(.983 -.185 .185 .983 -58.33 83.59)"/></g><rect fill="#d7981a" height="28.16" rx="4.33" transform="matrix(.983 -.185 .185 .983 -48.53 23.69)" width="64.42" x="70.23" y="257.38"/><rect fill="#d7981a" height="6.25" rx="2.96" transform="matrix(.983 -.185 .185 .983 -71.79 30.08)" width="67.42" x="91.28" y="395.96"/><rect fill="#d7981a" height="6.25" rx="2.96" transform="matrix(.983 -.185 .185 .983 -74.47 32.96)" width="89.24" x="94.45" y="411.72"/></g></svg>