<svg xmlns="http://www.w3.org/2000/svg" version="1.1" xmlns:xlink="http://www.w3.org/1999/xlink" width="512" height="512" x="0" y="0" viewBox="0 0 512 512" style="enable-background:new 0 0 512 512" xml:space="preserve" class=""><g><path d="m511.764 321.243-6.017-50.405c-.647-5.418-5.519-9.317-10.946-8.763-19.888 2.035-38-12.465-40.369-32.317-2.37-19.852 11.819-38.205 31.628-40.911 5.407-.739 9.223-5.675 8.576-11.093l-6.016-50.405c-1.04-8.708-5.408-16.49-12.3-21.913-6.893-5.422-15.484-7.835-24.191-6.797l-351.243 41.925c-8.62 1.029-16.329 5.324-21.744 12.096h-46.31C14.728 152.662 0 167.39 0 185.493v50.763a10 10 0 0 0 9.83 9.999c19.991.339 36.255 16.881 36.255 36.874 0 19.993-16.264 36.535-36.255 36.875-5.455.091-9.83 4.541-9.83 9.997v50.763c0 18.103 14.728 32.831 32.832 32.831H386.568c18.104 0 32.832-14.728 32.832-32.832v-15.431l63.655-7.598c8.708-1.039 16.49-5.407 21.913-12.3 5.421-6.893 7.835-15.484 6.796-24.191zM399.4 347.577v33.186c0 7.075-5.756 12.832-12.832 12.832h-62.004V374.846c0-5.523-4.477-10-10-10s-10 4.477-10 10V393.594H32.832c-7.075 0-12.832-5.756-12.832-12.832v-41.776c11.235-2.151 21.554-7.645 29.739-15.958 10.541-10.705 16.346-24.875 16.346-39.9s-5.805-29.195-16.346-39.9C41.553 234.915 31.235 229.421 20 227.27v-41.777c0-7.075 5.756-12.832 12.832-12.832h271.733v121.771c0 5.523 4.477 10 10 10s10-4.477 10-10v-121.77h62.004c7.075 0 12.832 5.756 12.832 12.832v41.777c-11.235 2.151-21.554 7.645-29.74 15.958-10.541 10.705-16.345 24.875-16.345 39.9s5.805 29.195 16.345 39.9c8.186 8.313 18.505 13.807 29.74 15.958v8.59zm89.849-14.508a12.75 12.75 0 0 1-8.564 4.807l-61.285 7.315v-15.19a10 10 0 0 0-9.83-9.999c-19.991-.339-36.255-16.881-36.255-36.875s16.264-36.535 36.255-36.874a10 10 0 0 0 9.83-9.999v-50.763c0-18.104-14.728-32.832-32.832-32.832H168.296l286.203-34.16a12.749 12.749 0 0 1 9.455 2.656 12.746 12.746 0 0 1 4.807 8.564l4.952 41.483c-10.901 3.468-20.496 10.146-27.639 19.37-9.197 11.879-13.282 26.637-11.501 41.556 1.781 14.919 9.225 28.302 20.959 37.682 9.113 7.285 20.01 11.516 31.421 12.321l4.952 41.483a12.75 12.75 0 0 1-2.656 9.455z" fill="#0e89d0" opacity="1" data-original="#000000" class=""></path><path d="M323.798 330.811c-.25-.6-.56-1.18-.92-1.72a9.57 9.57 0 0 0-1.24-1.52 10.04 10.04 0 0 0-3.25-2.16c-.6-.25-1.23-.45-1.87-.58-1.29-.25-2.62-.25-3.91 0-.64.13-1.26.33-1.87.58-.6.25-1.18.55-1.72.92-.55.36-1.06.78-1.52 1.24-.47.46-.88.97-1.25 1.52-.36.54-.67 1.12-.92 1.72-.25.61-.44 1.24-.57 1.88s-.19 1.3-.19 1.95a9.84 9.84 0 0 0 .76 3.82 9.87 9.87 0 0 0 2.17 3.25c.46.46.97.88 1.52 1.24.54.36 1.12.67 1.72.92.61.25 1.23.45 1.87.57.65.13 1.3.2 1.96.2.65 0 1.3-.07 1.95-.2.64-.12 1.27-.32 1.87-.57s1.18-.56 1.73-.92c.54-.36 1.06-.78 1.52-1.24.46-.46.88-.97 1.24-1.52.36-.54.67-1.12.92-1.73a10.098 10.098 0 0 0 .77-3.82c0-.65-.07-1.31-.2-1.95s-.32-1.27-.57-1.88zM241.858 257.27l-43.928-6.383-19.645-39.805a10 10 0 0 0-17.934 0l-17.285 35.023-2.36 4.782-16.628 2.416-27.299 3.967a10.001 10.001 0 0 0-5.542 17.057l26.454 25.787 5.331 5.197-3.024 17.633-4.48 26.117a10 10 0 0 0 14.509 10.542l39.291-20.656 39.29 20.656a9.994 9.994 0 0 0 10.531-.761 9.998 9.998 0 0 0 3.978-9.781l-7.504-43.75 31.787-30.984a10 10 0 0 0-5.542-17.057zm-43.969 37.389a9.997 9.997 0 0 0-2.876 8.851l4.967 28.961-26.009-13.673a9.998 9.998 0 0 0-9.307 0l-26.009 13.674 4.967-28.961a9.97 9.97 0 0 0-.247-4.403 9.973 9.973 0 0 0-2.629-4.448l-12.322-12.011-8.719-8.499 10.052-1.462 19.027-2.765c.3-.044.592-.114.884-.184a9.99 9.99 0 0 0 6.646-5.286l13.005-26.35 13.004 26.35a10 10 0 0 0 7.529 5.47l29.079 4.226-21.042 20.51z" fill="#0e89d0" opacity="1" data-original="#000000" class=""></path></g></svg>